<?xml version="1.0" encoding="utf-8"?>
<!-- Generator: Adobe Illustrator 19.0.0, SVG Export Plug-In . SVG Version: 6.00 Build 0)  -->
<svg version="1.1" id="圖層_4" xmlns="http://www.w3.org/2000/svg" xmlns:xlink="http://www.w3.org/1999/xlink" x="0px" y="0px"
	 viewBox="-5 102.6 584.7 636.3" style="enable-background:new -5 102.6 584.7 636.3;" xml:space="preserve">
<style type="text/css">
	.st0{clip-path:url(#SVGID_2_);}
	.st1{fill:#ED7658;}
	.st2{enable-background:new    ;}
	.st3{fill:#FFFFFF;}
</style>
<g>
	<defs>
		<rect id="SVGID_1_" x="-6.9" y="102.6" width="588.5" height="636.3"/>
	</defs>
	<clipPath id="SVGID_2_">
		<use xlink:href="#SVGID_1_"  style="overflow:visible;"/>
	</clipPath>
	<g class="st0">
		<g>
			<polygon class="st1" points="581.6,102.6 -6.3,102.6 -6.9,636.2 287,738.9 581.6,636.2 			"/>
		</g>
		<g class="st2">
			<path class="st3" d="M58.8,395.2c4.2-21.9,4.4-48.7,0.5-80.7c-0.3-3.2,0.9-5.1,3.8-6.1c2.3-0.7,5.1-1.2,8.2-1.5
				c4-0.5,13.9-4.1,29.6-11.5c15.3-7.1,29.8-9,43.6-6.1c11.1,2.7,15.2,6.1,12,10.5c-3.8,5.1-7.3,19.7-10.6,43.6
				c-3.3,23.9-4,45.8-1.9,65.6c0.7,11.9,4.4,22.4,11.1,31.4c6.4,9,12.5,12.9,18.6,11.2c1.9-0.2,2.6-7.6,2.3-21.9
				c-0.7-14.1-2.4-25.8-5.4-35.1c-1-4.1,0-4.4,3.1-0.7c2.6,3.7,5.7,11.5,9.4,22.4c1.7,7.1,3,15.6,3.7,25.8
				c0.7,10.5,1.6,18.8,2.8,24.9c2.1,9.5,1.7,13.6-0.7,12.2c-3.1-1-6.1-1.5-8.7-1.9c-13.1-5.8-23-14.4-30.1-25.8
				c-7.5-11.2-12-21-13.2-29.5c-4.9-23.6-5.7-48-2.3-73.6c3.1-25.3,3.5-40,1-43.4c-4.9-4.1-12.7-4.6-23.7-1.5
				c-11.1,3.2-20,6.8-26.3,10.2c-6.8,3.7-10.8,7.3-11.5,10.5c-1.6,2.7-2.3,11.5-1.9,26.1c0,14.9-1.9,31.2-5.7,49
				c-1.9,6.8-2.3,11.9-0.9,15.4c1,3.2,0.9,6.6-0.3,9.5c-6.6,12.2-15.3,21.7-26.5,28.8c-4,2.9-6.4,3.7-6.8,2.7c-0.7-1,0.7-3.9,4.4-9
				C48.2,426.4,55.7,409.4,58.8,395.2z M113.4,446.7c-19,3.9-33.8,10-44.2,18.3c-1.4,2.2-3-0.5-4.2-9c-1.4-8.3-1.2-11.9,0.5-11.7
				c1.9,0.2,10.5-1.9,25.6-6.3c0-0.5,0.2-1,0.7-1.5c0.7-2.4,1.2-10.7,1.9-25.3c-0.7,0.2-1.4,0.5-2.1,0.7c-2.8,0.5-4.5,1.5-5.2,2.4
				c-0.7,1-1.7-0.5-3-4.6c-5.4-10.5-8.7-21.7-9.8-33.6c-0.3-3.7,0-5.6,1.4-5.6c1.4,0,3.1-0.5,5.1-1.5c3.1-1.2,7.7-3.2,13.9-5.4
				c-0.3-6.3-0.9-11-1.4-14.6c-2.1,0-4.5,1-7,2.7c-2.1,1.7-3.5,0.7-3.8-3.2c-0.7-3.7-1.7-7.1-2.6-10.5c-1.7-3.2-0.3-4.6,4-4.6
				c7.5-1.2,13.9-3.4,19.5-6.3c5.6-2.7,9.9-4.4,13.4-5.4c1.9-0.5,3.1,1.9,3.8,6.6c0.3,5.1-0.3,8-1.9,9c-4.7,2.7-9.1,5.4-12.5,7.6
				c-0.3,1.7-0.5,3.2-0.5,4.4c-0.3,1.9-0.5,5.6-0.2,10.7c4.7-1.5,8-1.9,9.9-1.7c8.2,1.5,13.6,4.9,16.2,10c0.3,1.5-0.3,3.4-2.1,5.4
				c-2.1,2.2-5.2,12.4-9.2,30.7c0,1.9-0.5,3.2-1.2,3.7c-0.7,0.5-2.6,0.5-6.1-0.2c-1.7,0-4.4,0.5-8,1c0,12.9,0.3,20.5,1.2,22.7
				c0,0.7,0.2,1.5,0.7,2.2c0.3,0,0.7,0,1.4-0.5c3.3-1.5,5.6-3.4,7-6.1c3.3-4.4,7.5-5.4,12.4-2.7c4.7,1.9,8,6.8,9.8,14.9
				c1.4,8.3,1.6,14.1,1,17.5c-1,3.9-2.8,5.6-4.9,4.6c-2.3-0.7-5.2-2.4-8.5-4.9c-7.1-5.1-9.2-7.8-6.3-8c2.4,0,4.5-0.7,6.3-2.4
				c4.5-5.4,4.9-10.5,1.4-16.1c-2.1-1.7-4.2-1.9-6.4-0.7c-2.4,1-4.2,5.8-5.2,14.4C114.4,445.9,114.1,446.9,113.4,446.7z M94.4,386.5
				c0-4.4-0.2-8.5-0.2-12.2c-4.2,1.2-7,2.9-8.7,4.4c-1,1.9-1,5.8,0.2,11c1,5.8,1.9,9,3,10c0,0.2,1.7-0.2,5.4-1.2
				C94,394.7,94,390.9,94.4,386.5z M104.6,370.6c-0.3,5.6-0.5,12.7-0.2,20.5c-0.3,1.5-0.5,2.9-0.2,4.1c4.2-1.5,6.3-2.7,7-3.9
				c1-1.9,1.9-5.6,2.6-11.2c0.7-5.4,0.7-8.5,0.3-9.5c-2.1-1.7-4.7-1.9-7.3-0.7C105.9,370.1,105,370.4,104.6,370.6z"/>
			<path class="st3" d="M231.6,358.4c3.7-6.1,8.4-12.9,14.6-20.2c0.5-0.7,1-1,1.6-0.5c0.3,0.5,0.3,1.2,0.2,2.2
				c-2.3,11.5-3.3,20.5-2.8,27c0.7,6.6-0.3,9.3-2.8,8.5c-2.8-0.5-5.7-2.9-9.2-7.3c-3.7-3.9-5.1-6.3-3.8-7.1
				C230.1,360.6,230.8,359.9,231.6,358.4z M296.3,463.7c-9.2,1-17.8,3.2-25.3,5.8c-7.1,2.7-12.4,5.8-15.9,9c-1,1-2.6-1.2-4.7-6.6
				c-2.4-5.4-3.7-8.5-3.5-9.5c0-1,0.5-1.5,1.9-1.7c1,0,2.6-1,4.7-2.9c6.1-9,10.6-16.1,13.8-21.4c1.6-3.4,2.1-6.3,1.7-9
				c-12.2,2.9-22.3,6.3-30,9.7c-1.7,1.2-4-1.2-6.4-7.6c-2.6-6.1-1-8.3,4.7-6.3c15-4.9,32.8-9.5,53.7-14.9c9.6-1.9,18.8-2.9,28-3.9
				c8.7-0.7,13.9-1.7,15.5-2.9c1-0.5,1.9,0.7,3,3.4c0.7,2.7,1.7,4.9,3.3,6.1c1.2,1.2,1.7,4.6,1.7,10c-0.3,5.6-1.6,7.6-3.8,5.4
				c-13.9-4.6-30.3-5.4-49-2.4c-0.3,0-0.7,0-0.7,0c-9.6,13.2-15.2,22.7-16.7,28.3c1.7,0,5.2-0.5,10.8-1.9c5.6-1.2,9.1-2.9,11.1-4.9
				c2.1-4.9,5.4-8.3,10.6-10.5c4.7-0.2,9.4,1.7,14.5,6.3c3.3,3.2,6.1,7.3,8.2,12.7c2.1,5.4,3.5,11.7,4.4,18
				c-0.7,4.4-5.2,4.9-13.4,1.7c-4.5-2-7.7-4.6-9.4-7.3c-2.1-2.9-1.9-4.1,0.9-4.1c2.3,0,4.2-0.2,5.9-1.2c1.4-0.7,2.4-1.9,3.1-3.7
				c0.9-2.9,0-7.1-3-12.2c-2.8-2.9-5.6-3.9-8.7-3.4c-4,2.2-6.4,4.9-7,8.3c-0.7,3.7-1.2,7.3-1.6,11.7
				C298.2,463.7,297.3,464.4,296.3,463.7z M265.3,292.2c9.9-0.5,18.5-2.2,26-5.4c7.1-2.9,13.1-4.4,17.6-5.1c2.1,0,3.3,2.4,3.7,7.6
				s-0.3,8.3-2.4,9.3c-6.1,2.9-11.8,5.8-16.7,8.8c-0.3,0.5-0.5,1-0.5,1.2c-0.3,0.5-0.7,3.4-0.7,8c6.1-1.5,14.1-2.2,24-3.2
				c6.8-0.5,12.2,0.5,16.7,2.4c3,1.5,8.9,12.7,18.1,33.6c1.7,4.4,1.6,6.3-0.2,5.8c-2.1,0-5.1,0.5-8.9,1.5c-3.7,1-8.9,1-15.5-0.2
				c0.3,1.2,0.3,3.2,0,5.8c-1,5.1-3,7.6-5.7,6.8c-3.7-0.2-7.3-1.7-10.5-4.4c-4.5-2.2-6.6-6.1-6.3-11.2c-1-7.8-1.2-13.9-0.2-19
				c0.3-2.7,0.3-4.9,0.2-6.8c-0.7,0.5-1.4,1-1.9,1c-3.5,1.2-7,2.4-10.6,3.4c-0.3,9-0.7,20.5-0.9,34.1c0,3.9-1.6,5.4-4.5,4.1
				c-3-1-4.5-2.4-4.4-4.9c-0.3-12.2-0.5-22.7-0.3-31.2c-0.7,0.2-1.2,0.5-1.2,0.5c-3.1,0.2-5.7,1-8.2,1.9c-0.7,2.4-1,4.6-0.9,6.3
				c-1.4,5.1-1.6,11.9-0.2,20.5c0.3,2.2-2.1,5.1-6.8,8c-3,2.9-6.6,4.1-10.6,4.1c-4.2,0-4.9-0.5-2.1-2.4c7.8-7.8,11.8-17.1,12.4-28.3
				c0-1.5-0.2-2.9-0.3-3.9c-2.3,1.5-4.4,3.2-6.1,4.6c-1.7,1.5-3.1,0-4-4.4c-1.4-4.4-1.2-6.6,0.7-6.6c2.3-0.7,5.7-2.4,10.1-4.9
				c4.2-2.2,9.8-5.4,16.9-9c-0.3-3.9-0.7-6.6-1-8c-0.7,0-1.4,0-1.7-0.5c-2.3-1.5-6.1-0.7-10.8,1.9c-2.8,1.7-4.4,0.5-4.5-4.1
				c-0.7-4.4-1.6-8.5-2.8-12.9C258.6,293.1,260.4,291.4,265.3,292.2z M259.3,396.9c-1-6.8-0.3-10.5,2.1-10.5
				c4.9-0.2,9.9-1.2,15.3-3.2c5.2-1.9,15-4.1,29.8-6.6c2.4-0.7,3.7,1.5,3.8,6.8c-0.3,5.1-2.1,8-5.2,8.5c-7.5,3.2-15.2,4.9-23.3,5.6
				c-8.2,1-14.1,3.4-17.8,6.8C261.6,406.7,260,404.5,259.3,396.9z M332.9,328.2c-3.5-3.7-8.2-4.9-14.1-3.9c-1.4,0-2.8,0.2-4,0.2
				c-2.4,4.4-3.5,9.7-3.5,15.8c-0.3,6.3,0,10.2,1.2,11.2c1,1.7,2.6,2.4,5.1,1.9c2.1-0.2,3.8-0.2,5.9-0.2c0,0,0.2,0.2,0.7,0.2
				c2.6-1.5,5.7-4.6,9.6-9.7C337,338.5,336.7,333.6,332.9,328.2z"/>
			<path class="st3" d="M428,391.8c-0.7,20.2-1,42.4-1,66.3c0.3,10.5-0.3,15.8-1.9,15.8c-4.4-1.7-8-3.7-10.8-6.1
				c-2.3-1.2-2.3-2.9,0.2-4.9c2.4-1.9,3.7-4.4,3.7-7.1c-0.3-21.9-0.5-41.9-0.2-60.4c-3.1,3.2-6.4,9-9.9,16.6
				c-5.4,11-12.9,21-22.3,29.5c-1.6,1.2-3.3,1.7-4.9,1.7c-1.7,0-1.4-1.9,1-6.1c8.9-14.1,16.5-28.8,23-43.4
				c4.4-10.2,7.1-18.8,8.5-25.6c-0.3,0-0.5,0.2-0.5,0.2c-10.3,3.9-16.4,7.3-18.3,10.7c-1.4,2.9-3.5-0.2-6.4-9.5
				c-3.1-9.3-3.7-13.6-1.7-13.2c1,0.2,11.7-3.4,32.1-11.7c0-21,0.3-39.7,1.2-55.3c0-3.9-0.2-6.3-0.3-8.3c-0.7-1.5,0.5-1.7,3.5-1.2
				c3.8,1,7,2.2,9.9,3.2c2.4,0.7,2.8,1.9,1.2,4.1c-2.1,2.4-3.1,6.3-3.1,11.2c-0.7,12.4-1.2,26.3-1.6,42.2c0.3-0.2,1-0.5,2.1-0.7
				c7.1-3.9,10.8-4.6,11.1-2.2c0,2.4,0.2,5.8,0.7,9.5c0.3,4.1-1.2,7.1-4.9,8.5c-3,1.9-6.3,3.9-9.8,5.8c-0.2,3.2-0.3,6.1-0.2,9.3
				c0.2,0.7,0.5,1.5,1,2.2c1.7,3.7,4.9,7.8,9.2,11.9c1.4,1.5,1.4,4.6,0.2,9.3c-1.4,4.4-3.1,5.6-5.4,3.2
				C430.9,395.2,429,393.3,428,391.8z M457.4,404.3c5.1-1.9,12.7-4.1,23-6.8c-1-0.7-1.7-1.2-2.4-1.7c-1.7-0.5-2.6-1.7-2.3-3.2
				c-0.7-8,0-14.1,2.3-18c3.3-5.8,5.9-6.6,7.7-2.4c0.3,1,0.7,3.4,1,6.6c0,3.7,0.5,6.8,1.7,9.5c0.7,2.4,1.2,4.9,1.9,6.8
				c4.7-1.5,11-3.2,18.8-5.1c1.4-1,2.4,2.4,3.1,9.7c0.3,7.6-1.4,10.2-5.1,7.3c-5.2,0.2-10.3,0.7-15,1.5c-1,1-2.1,2.2-2.8,3.4
				c2.8,2.9,6.6,5.6,11.8,8.5c7.8,4.9,11.8,8,12.2,9.7c-0.3,1.2-1,2.2-2.1,3.2c-1.4,1-4.2,7.3-8.7,19.3
				c-4.7,11.9-9.8,22.2-15.2,31.2c-1.6,4.4-3.7,4.9-5.9,1.7c-2.4-3.4-4.7-6.1-6.8-8.5c-5.1-7.3-9.4-14.9-12.4-22.9
				c-0.3-0.7-0.7-1.2-0.7-1.7c-6.8,8.5-11.7,13.6-14.8,14.6c-4.7,2.7-8.4,3.4-10.6,1.9s-2.1-2.2,0.5-3.2c7.5-5.4,15-14.4,22.8-27.8
				c6.8-10.7,11.5-19,13.8-25.1c-6.8,1.9-10.6,3.2-11.3,3.9c-3.8,3.4-5.9,3.9-6.4,1c-0.7-2.4-1.7-5.4-3-8.5
				c-1.4-2.9-1.4-4.1,0.2-4.4C454.3,404.7,455.7,404.7,457.4,404.3z M443.5,385.2c3.1-6.8,7.1-13.9,12.4-21.9c0.3-0.7,0.9-1,1.6-0.7
				c0.2,0.5,0.2,1.2,0.2,1.9c-1.6,11.2-2.1,20.5-1.2,26.8c1,5.4,0.3,8-2.1,7.8c-2.4-0.2-5.2-1.9-8.7-5.1c-3.3-3.4-4.7-5.4-3.8-6.3
				C442.4,387,442.8,386,443.5,385.2z M475.7,311.7c6.4-2.4,18.5-4.9,36.6-7.3c2.4-0.5,3.5,1.5,3.5,6.8c-0.2,5.1-2.1,8-5.2,8.3
				c-4.4,1.5-8.7,2.7-12.5,3.7c0,1.5,0.5,2.2,1.7,2.2c1.2,0.5,3.3,1.7,6.1,3.4c2.4,1.9,2.8,3.9,1.6,5.8c-1,1.2-2.1,2.9-3,4.4
				c-1,1.7-2.4,3.7-3.7,5.8c-1,1.5-1.7,3.4-1.7,5.8c0.3,0,0.7,0,1.4,0c7.1,0,12.9,1.5,17.6,4.1c2.1,0.2,6.8,6.6,14.5,18.3
				c2.1,2.9,2.3,4.9,0.7,5.4c-1.7,0.5-4.2,1.9-7.3,4.1c-3.3,2.2-8.4,3.7-14.6,5.1c-7.5-1-8.4-2.2-2.4-4.6c2.1-0.2,4.7-1.7,7.7-4.6
				c2.8-2.7,3.1-6.1,1-10.5c-3.7-4.1-8.7-5.8-14.8-5.4c-3,0.2-6.4,1-9.8,2.2c-4.2,1-8.5,1.9-13.2,2.4c-5.1,0.7-9.6,2.7-13.6,5.8
				c-1.6,1.5-3-0.2-4-5.1c-1.4-4.6-1.2-6.8,0.9-6.8c1.4-0.5,3.3-1.2,6.3-2.4c2.4-1.2,5.7-2.9,10.3-4.6c0.3-0.2,0.9-0.5,1.7-0.7
				c4.2-4.4,7-8,8.7-11c1.7-3.4,2.8-5.8,3.5-7.6c0-4.4-1.4-6.3-4.2-6.1c-2.8,0.5-4.7,1.9-6.1,3.9c-4.7,8.3-8,13.6-9.8,16.3
				c-1,2.4-2.4,2.9-4.5,1.5c-2.4-1.5-3-3.9-1.4-7.6c3.5-8,5.4-13.6,6.1-16.8c-6.4,1.2-11.3,3.4-14.6,6.8c-2.3,1.9-3.8-0.5-4.4-7.3
				c-0.7-6.6,0-10,2.3-10C462.6,315.3,468.9,314.1,475.7,311.7z M488.8,451c3.1-6.3,5.1-13.4,5.9-20.7c-0.9-3.4-3-5.6-6.1-7.1
				c-2.3-1-4.4-1.5-5.7-1.5c-4.7,7.6-9.6,14.6-13.9,21.2c-2.1,2.4-4,4.4-5.2,6.3c0,0.2,0.2,0.5,0.7,0.7c1.6,3.9,4.4,6.8,8.2,9
				c3.8,2.4,7,3.4,10.1,2.4C483.4,461,485.5,457.6,488.8,451z M475.7,296.8c-1-7.6-0.7-13.4,1-17.8c3.7-8.5,7-10.2,9.8-5.1
				c0.5,1,1.2,3.4,2.3,7.1c0.7,3.7,1.7,7.1,3.5,9.5c1.4,2.9,2.3,5.4,3.3,7.8c0.3,1.5-0.3,3.4-1.7,5.4c-1.6,1.9-4,2.2-7.1,0.5
				c-3-1.5-5.6-2.7-7.5-3.4C477.1,300.2,475.9,299,475.7,296.8z"/>
		</g>
	</g>
</g>
</svg>
